<svg width="20" height="20" viewBox="0 0 20 20" fill="none" xmlns="http://www.w3.org/2000/svg">
<path d="M15.053 0H4.447C3.26758 0 2.13647 0.468522 1.3025 1.3025C0.468522 2.13647 0 3.26758 0 4.447V15.053C0 16.2324 0.468522 17.3635 1.3025 18.1975C2.13647 19.0315 3.26758 19.5 4.447 19.5H15.053C16.2324 19.5 17.3635 19.0315 18.1975 18.1975C19.0315 17.3635 19.5 16.2324 19.5 15.053V4.447C19.5 3.26758 19.0315 2.13647 18.1975 1.3025C17.3635 0.468522 16.2324 0 15.053 0ZM6.593 15.742C6.59614 15.7964 6.58811 15.8509 6.56942 15.9021C6.55072 15.9534 6.52176 16.0002 6.4843 16.0398C6.44684 16.0794 6.40167 16.111 6.35158 16.1325C6.30149 16.154 6.24752 16.1651 6.193 16.165H4.413C4.30574 16.1621 4.20386 16.1174 4.12911 16.0404C4.05437 15.9635 4.0127 15.8603 4.013 15.753V8.35C4.01153 8.29655 4.02079 8.24335 4.04023 8.19355C4.05967 8.14374 4.08891 8.09834 4.1262 8.06002C4.16349 8.0217 4.20808 7.99125 4.25734 7.97047C4.3066 7.94968 4.35953 7.93898 4.413 7.939H6.193C6.24651 7.93884 6.2995 7.94945 6.34882 7.97019C6.39815 7.99092 6.4428 8.02137 6.48012 8.05972C6.51744 8.09806 6.54666 8.14352 6.56605 8.19339C6.58545 8.24326 6.59461 8.29652 6.593 8.35V15.742ZM5.27 6.382C5.07729 6.38056 4.88674 6.34117 4.70925 6.26608C4.53176 6.191 4.37079 6.08169 4.23554 5.9444C4.10029 5.80711 3.99341 5.64452 3.921 5.46593C3.84858 5.28733 3.81206 5.09621 3.8135 4.9035C3.81494 4.71079 3.85433 4.52024 3.92942 4.34275C4.0045 4.16526 4.11381 4.00429 4.2511 3.86904C4.38839 3.73379 4.55098 3.62691 4.72957 3.5545C4.90817 3.48208 5.09928 3.44556 5.292 3.447C5.67452 3.45944 6.03703 3.62087 6.30219 3.89686C6.56734 4.17284 6.71415 4.54152 6.71128 4.92423C6.7084 5.30694 6.55609 5.67337 6.28682 5.94535C6.01755 6.21732 5.65266 6.3733 5.27 6.38M16.087 15.73C16.0868 15.8311 16.0472 15.9282 15.9766 16.0006C15.9061 16.073 15.8101 16.1151 15.709 16.118H13.83C13.7288 16.1149 13.6328 16.0726 13.5623 16C13.4918 15.9274 13.4522 15.8302 13.452 15.729V12.305C13.452 11.794 13.608 10.082 12.096 10.082C10.917 10.082 10.684 11.282 10.639 11.816V15.807C10.639 15.9084 10.5996 16.0058 10.529 16.0786C10.4585 16.1514 10.3623 16.1939 10.261 16.197H8.438C8.38683 16.197 8.33617 16.1869 8.28891 16.1673C8.24164 16.1477 8.19872 16.1189 8.16258 16.0827C8.12645 16.0465 8.09781 16.0035 8.07832 15.9562C8.05883 15.9089 8.04887 15.8582 8.049 15.807V8.314C8.05187 8.21258 8.09425 8.11629 8.16711 8.04567C8.23997 7.97505 8.33754 7.9357 8.439 7.936H10.261C10.3625 7.9357 10.46 7.97505 10.5329 8.04567C10.6057 8.11629 10.6481 8.21258 10.651 8.314V8.959C10.917 8.56962 11.2843 8.26027 11.7133 8.0643C12.1422 7.86834 12.6165 7.7932 13.085 7.847C16.12 7.847 16.109 10.682 16.109 12.294L16.087 15.73Z" fill="white"/>
</svg>
