<svg width="18" height="18" viewBox="0 0 18 18" fill="none" xmlns="http://www.w3.org/2000/svg">
<path fill-rule="evenodd" clip-rule="evenodd" d="M0 8.75C0 11.0706 0.921872 13.2962 2.56282 14.9372C4.20376 16.5781 6.42936 17.5 8.75 17.5C11.0706 17.5 13.2962 16.5781 14.9372 14.9372C16.5781 13.2962 17.5 11.0706 17.5 8.75C17.5 6.42936 16.5781 4.20376 14.9372 2.56282C13.2962 0.921872 11.0706 0 8.75 0C6.42936 0 4.20376 0.921872 2.56282 2.56282C0.921872 4.20376 0 6.42936 0 8.75ZM16 8.75C16 10.6728 15.2362 12.5169 13.8765 13.8765C12.5169 15.2362 10.6728 16 8.75 16C6.82718 16 4.98311 15.2362 3.62348 13.8765C2.26384 12.5169 1.5 10.6728 1.5 8.75C1.5 6.82718 2.26384 4.98311 3.62348 3.62348C4.98311 2.26384 6.82718 1.5 8.75 1.5C10.6728 1.5 12.5169 2.26384 13.8765 3.62348C15.2362 4.98311 16 6.82718 16 8.75Z" fill="white"/>
<path fill-rule="evenodd" clip-rule="evenodd" d="M5 8.75C5 13.272 6.491 17 8.75 17C11.009 17 12.5 13.272 12.5 8.75C12.5 4.228 11.009 0.5 8.75 0.5C6.491 0.5 5 4.228 5 8.75ZM11 8.75C11 12.512 9.805 15.5 8.75 15.5C7.695 15.5 6.5 12.512 6.5 8.75C6.5 4.988 7.695 2 8.75 2C9.805 2 11 4.988 11 8.75Z" fill="white"/>
<path d="M2.352 4.21747L3.358 3.10547C3.458 3.19547 3.567 3.28547 3.683 3.37247C4.954 4.32447 6.983 4.91247 9.198 4.91247C11.089 4.91247 12.851 4.48547 14.129 3.75447C14.437 3.57847 14.711 3.38747 14.948 3.18447L15.922 4.32547C15.5966 4.60147 15.2457 4.84591 14.874 5.05547C13.358 5.92347 11.34 6.41147 9.198 6.41147C6.676 6.41147 4.333 5.73347 2.783 4.57247C2.63396 4.46082 2.49014 4.34236 2.352 4.21747ZM2.352 13.2995L3.358 14.4115C3.458 14.3205 3.567 14.2315 3.683 14.1445C4.954 13.1925 6.983 12.6045 9.198 12.6045C11.089 12.6045 12.851 13.0315 14.129 13.7625C14.437 13.9385 14.711 14.1295 14.948 14.3325L15.922 13.1915C15.5962 12.916 15.2453 12.6716 14.874 12.4615C13.358 11.5935 11.34 11.1055 9.198 11.1055C6.676 11.1055 4.333 11.7835 2.783 12.9445C2.63396 13.0561 2.49014 13.1746 2.352 13.2995ZM0.5 9.50047V8.00047H17V9.50047H0.5Z" fill="white"/>
</svg>
