<svg width="162" height="162" viewBox="0 0 162 162" fill="none" xmlns="http://www.w3.org/2000/svg">
<path d="M81 0C91.7413 0 102.043 4.26695 109.638 11.8622C117.233 19.4574 121.5 29.7587 121.5 40.5C121.5 51.2413 117.233 61.5426 109.638 69.1378C102.043 76.733 91.7413 81 81 81C70.2587 81 59.9574 76.733 52.3622 69.1378C44.767 61.5426 40.5 51.2413 40.5 40.5C40.5 29.7587 44.767 19.4574 52.3622 11.8622C59.9574 4.26695 70.2587 0 81 0ZM81 101.25C125.753 101.25 162 119.374 162 141.75V162H0V141.75C0 119.374 36.2475 101.25 81 101.25Z" fill="#616161"/>
</svg>
